HIERARCHY
ROOT Hips
{
 OFFSET 0.000000 0.000000 0.000000
 CHANNELS 6 Xposition Yposition Zposition Yrotation Xrotation Zrotation
 JOINT Chest
 {
  OFFSET 0.000000 9.585900 0.002600
  CHANNELS 3 Yrotation Xrotation Zrotation
  JOINT Chest2
  {
   OFFSET 0.000000 9.601200 -0.005300
   CHANNELS 3 Yrotation Xrotation Zrotation
   JOINT Chest3
   {
    OFFSET 0.000000 9.561800 0.000000
    CHANNELS 3 Yrotation Xrotation Zrotation
    JOINT Chest4
    {
     OFFSET 0.000000 9.552100 0.000000
     CHANNELS 3 Yrotation Xrotation Zrotation
     JOINT Neck
     {
      OFFSET 0.000000 14.453000 0.000000
      CHANNELS 3 Yrotation Xrotation Zrotation
      JOINT Head
      {
       OFFSET 0.000000 8.936500 -0.011300
       CHANNELS 3 Yrotation Xrotation Zrotation
       End Site
       {
        OFFSET 0.000000 17.073600 -0.006000
       }
      }
     }
     JOINT RightCollar
     {
      OFFSET -2.921100 9.558500 0.000000
      CHANNELS 3 Yrotation Xrotation Zrotation
      JOINT RightShoulder
      {
       OFFSET -13.519700 0.000000 0.000000
       CHANNELS 3 Yrotation Xrotation Zrotation
       JOINT RightElbow
       {
        OFFSET 0.000000 -29.696600 0.000000
        CHANNELS 3 Yrotation Xrotation Zrotation
        JOINT RightWrist
        {
         OFFSET 0.000000 -24.004700 0.000000
         CHANNELS 3 Yrotation Xrotation Zrotation
         End Site
         {
          OFFSET 0.000000 -17.728500 0.000000
         }
        }
       }
      }
     }
     JOINT LeftCollar
     {
      OFFSET 2.921100 9.558500 0.000000
      CHANNELS 3 Yrotation Xrotation Zrotation
      JOINT LeftShoulder
      {
       OFFSET 13.519700 0.000000 0.000000
       CHANNELS 3 Yrotation Xrotation Zrotation
       JOINT LeftElbow
       {
        OFFSET 0.000000 -29.696600 0.000000
        CHANNELS 3 Yrotation Xrotation Zrotation
        JOINT LeftWrist
        {
         OFFSET 0.000000 -24.004700 0.000000
         CHANNELS 3 Yrotation Xrotation Zrotation
         End Site
         {
          OFFSET 0.000000 -17.728500 0.000000
         }
        }
       }
      }
     }
    }
   }
  }
 }
 JOINT RightHip
 {
  OFFSET -7.771700 -0.012900 -0.001300
  CHANNELS 3 Yrotation Xrotation Zrotation
  JOINT RightKnee
  {
   OFFSET 0.000000 -40.869800 0.001200
   CHANNELS 3 Yrotation Xrotation Zrotation
   JOINT RightAnkle
   {
    OFFSET 0.000000 -39.717900 0.002100
    CHANNELS 3 Yrotation Xrotation Zrotation
    JOINT RightToe
    {
     OFFSET 0.000000 -4.965400 11.033500
     CHANNELS 3 Yrotation Xrotation Zrotation
     End Site
     {
      OFFSET 0.000000 -1.423100 5.872300
     }
    }
   }
  }
 }
 JOINT LeftHip
 {
  OFFSET 7.771700 -0.012900 -0.001300
  CHANNELS 3 Yrotation Xrotation Zrotation
  JOINT LeftKnee
  {
   OFFSET 0.000000 -40.869800 0.001200
   CHANNELS 3 Yrotation Xrotation Zrotation
   JOINT LeftAnkle
   {
    OFFSET 0.000000 -39.717900 0.002100
    CHANNELS 3 Yrotation Xrotation Zrotation
    JOINT LeftToe
    {
     OFFSET 0.000000 -4.965400 11.033500
     CHANNELS 3 Yrotation Xrotation Zrotation
     End Site
     {
      OFFSET 0.000000 -1.423100 5.872300
     }
    }
   }
  }
 }
}
MOTION
Frames: 9
Frame Time: 0.008333
-4.557322 52.650013 31.329465 171.972959 -40.697971 -2.678924 4.002648 21.897228 1.514235 0.449481 3.058569 0.297077 0.769142 4.870430 0.463510 3.121921 18.564542 2.254281 1.014374 16.607081 1.924798 1.186637 -4.922515 3.254589 -4.714501 -0.789609 -2.743460 -3.631022 -5.131813 0.274307 -123.251194 -72.784748 141.278178 26.867914 22.182914 80.667718 -5.094099 2.155950 0.153691 13.676109 -7.021714 4.908307 95.199838 -56.536843 -120.048724 -34.147404 26.099218 -94.787658 -3.757481 -40.722727 1.371503 -124.659088 85.475167 -120.406357 -0.657868 -9.896490 -2.967403 0.494430 -0.921145 0.212559 -1.363520 -37.089166 6.393682 67.268238 84.159798 56.497231 -5.127491 -12.343402 10.417007 0.426450 1.417299 0.232350
-4.560470 52.642211 31.335700 171.963608 -40.702220 -2.675100 4.000295 21.918988 1.519561 0.445767 3.086951 0.304518 0.761977 4.888916 0.470612 3.124818 18.590085 2.262929 0.984560 16.577416 1.938949 1.148719 -5.011000 3.250846 -4.698468 -0.872309 -2.808227 -3.591502 -5.161748 0.202870 -120.443015 -71.944415 138.963715 26.751868 22.180400 81.274794 -5.159136 2.112211 0.160461 13.561579 -7.108242 5.005170 93.601134 -55.064629 -119.205659 -33.869903 26.275710 -95.476220 -3.794163 -40.713194 1.383817 -124.489474 85.479995 -120.253949 -0.638502 -9.874511 -2.981838 0.485616 -0.936855 0.215144 -1.353220 -37.082814 6.402492 67.146240 84.163452 56.368216 -5.131332 -12.325028 10.422563 0.435083 1.404830 0.232846
-4.562974 52.634533 31.341064 171.955924 -40.711935 -2.673031 3.994640 21.965270 1.528966 0.449394 3.094249 0.308238 0.753853 4.953380 0.488767 3.124049 18.567360 2.255310 0.956813 16.533631 1.940127 1.096057 -5.091786 3.263015 -4.695613 -0.950515 -2.874868 -3.577656 -5.175520 0.208873 -118.019610 -71.125404 137.039222 26.613874 22.213287 81.793883 -5.227016 2.079268 0.176350 13.459989 -7.199859 5.072233 92.133020 -53.616235 -118.491374 -33.546870 26.508872 -96.019578 -3.843667 -40.696302 1.405147 -124.374554 85.492620 -120.168878 -0.624931 -9.861924 -2.980876 0.471890 -0.945372 0.206238 -1.343674 -37.071886 6.410814 67.023764 84.174204 56.241526 -5.127683 -12.312549 10.421830 0.440544 1.391510 0.233537
-4.566884 52.625131 31.347192 171.957218 -40.711138 -2.665845 3.980362 21.996967 1.527371 0.451874 3.106218 0.314701 0.751262 4.982373 0.496578 3.120042 18.558120 2.249771 0.940607 16.490209 1.929933 1.018476 -5.168556 3.296432 -4.694268 -1.009140 -2.933165 -3.531104 -5.208895 0.152430 -115.782287 -70.240256 135.221230 26.475176 22.264042 82.239540 -5.295531 2.067407 0.201218 13.389965 -7.288752 5.118944 90.802568 -52.204551 -117.927635 -33.162327 26.784790 -96.415931 -3.897768 -40.690706 1.415691 -124.279837 85.505376 -120.107479 -0.619645 -9.859721 -2.974162 0.467602 -0.945423 0.192237 -1.331373 -37.071742 6.403058 66.878151 84.178204 56.095806 -5.133332 -12.300482 10.409782 0.450466 1.378601 0.235594
-4.570105 52.614408 31.354102 171.960715 -40.702810 -2.661020 3.960936 22.060039 1.547857 0.457023 3.080644 0.299650 0.753945 4.967105 0.487922 3.118000 18.550571 2.244905 0.898302 16.503259 1.964645 0.956583 -5.275417 3.291970 -4.700444 -1.032905 -2.975042 -3.484425 -5.228502 0.128303 -113.887033 -69.361595 133.715910 26.345580 22.305667 82.622299 -5.364787 2.088455 0.234733 13.351707 -7.365243 5.159463 89.599396 -50.830527 -117.510540 -32.727797 27.093785 -96.677124 -3.958486 -40.695749 1.425229 -124.178385 85.512818 -120.033387 -0.603656 -9.849969 -2.992695 0.463758 -0.952251 0.194699 -1.321125 -37.080925 6.395941 66.775588 84.173745 55.993022 -5.145501 -12.285760 10.411396 0.460786 1.372243 0.232615
-4.575461 52.601645 31.362256 171.975150 -40.679441 -2.647759 3.935191 22.057164 1.529017 0.453389 3.110279 0.309181 0.751445 4.994590 0.495914 3.107593 18.616800 2.267359 0.855571 16.388221 1.932920 0.874177 -5.382864 3.295812 -4.693319 -1.177763 -3.059270 -3.433867 -5.240985 0.136508 -112.294488 -68.491182 132.474017 26.215697 22.320282 82.950178 -5.422227 1.973725 0.220975 13.327172 -7.419783 5.203558 88.524530 -49.493237 -117.220809 -32.270217 27.432989 -96.816116 -4.013696 -40.719828 1.414609 -124.124092 85.518822 -120.005674 -0.593727 -9.843898 -3.011810 0.470259 -0.954903 0.197008 -1.312063 -37.103442 6.368741 66.754785 84.138445 55.969482 -5.185340 -12.271934 10.403487 0.469241 1.377982 0.241916
-4.576818 52.588840 31.370949 171.961122 -40.656130 -2.636337 3.939433 22.053386 1.531304 0.450080 3.143054 0.318901 0.749188 5.023283 0.502717 3.100557 18.643956 2.271704 0.842467 16.288530 1.898471 0.745667 -5.479880 3.326733 -4.689665 -1.293670 -3.120853 -3.387306 -5.241282 0.171983 -110.927845 -67.624826 131.427248 26.075620 22.301126 83.235545 -5.486765 1.881033 0.215767 13.305857 -7.451455 5.252043 87.569433 -48.193770 -117.034707 -31.805793 27.791944 -96.831381 -4.052719 -40.744265 1.416957 -124.067872 85.529212 -119.947397 -0.606080 -9.834290 -3.044094 0.503940 -0.958289 0.197135 -1.296507 -37.127655 6.366706 66.756998 84.116538 55.972796 -5.204624 -12.269142 10.393630 0.467556 1.384804 0.248225
-4.579581 52.575622 31.379781 171.948728 -40.627352 -2.614224 3.934867 22.070016 1.528478 0.447791 3.154760 0.318589 0.748604 5.037452 0.504189 3.094393 18.667112 2.273815 0.796447 16.218888 1.891291 0.643814 -5.589811 3.323018 -4.671566 -1.435027 -3.190459 -3.358083 -5.199436 0.309770 -109.745287 -66.805857 130.543075 25.920808 22.248583 83.489634 -5.515699 1.792427 0.204408 13.249610 -7.469166 5.306791 86.709363 -46.930721 -116.928121 -31.339090 28.142013 -96.739925 -4.063175 -40.778039 1.397364 -124.099920 85.541631 -119.981152 -0.594335 -9.828903 -3.061253 0.497063 -0.959060 0.198290 -1.263345 -37.158944 6.345186 66.752964 84.094858 55.976423 -5.230251 -12.263656 10.382564 0.477778 1.388156 0.253837
-4.580550 52.564315 31.386947 171.936121 -40.610652 -2.597586 3.932139 22.100645 1.531326 0.444249 3.166829 0.317570 0.747705 5.052709 0.505152 3.086514 18.692325 2.273723 0.688208 16.186100 1.898148 0.605374 -5.732162 3.282488 -4.649569 -1.553263 -3.224923 -3.383823 -5.179612 0.410699 -108.576711 -65.928329 129.705764 25.743644 22.170369 83.729898 -5.594272 1.701195 0.199503 13.262189 -7.488760 5.341448 85.933802 -45.711181 -116.893938 -30.860298 28.456907 -96.587255 -4.057607 -40.798341 1.373087 -124.122570 85.552036 -119.992371 -0.577194 -9.818581 -3.075331 0.485521 -0.965735 0.197340 -1.230068 -37.177593 6.326397 66.753422 84.076628 55.989189 -5.240117 -12.262119 10.362328 0.475278 1.389258 0.264200
